<?xml version="1.0" encoding="UTF-8"?>
<svg version="1.1" xmlns="http://www.w3.org/2000/svg" width="256" height="256">
<path d="M0 0 C0.88743088 -0.00297112 1.77486176 -0.00594224 2.68918449 -0.0090034 C5.66298253 -0.01767529 8.63674024 -0.01919738 11.61054993 -0.02069092 C13.74281907 -0.02532018 15.87508738 -0.03034499 18.00735474 -0.03573608 C23.80093344 -0.04885213 29.59450057 -0.05530356 35.3880918 -0.05974674 C39.00892082 -0.0626789 42.62974668 -0.06678399 46.25057411 -0.07125092 C57.58283463 -0.08492409 68.91508792 -0.09459149 80.24735612 -0.09845281 C93.32209876 -0.1029325 106.39673681 -0.12047709 119.47144765 -0.1494534 C129.58202665 -0.17108156 139.69257625 -0.18115771 149.80317813 -0.18249393 C155.83972973 -0.18354118 161.87618298 -0.18943224 167.91271019 -0.20731354 C173.59344935 -0.2238136 179.27401643 -0.22594023 184.95477104 -0.21717453 C187.03561616 -0.21640518 189.11647061 -0.22073331 191.19729233 -0.23063278 C194.04668906 -0.24338983 196.89547976 -0.23745504 199.74487305 -0.22705078 C200.56056076 -0.23510719 201.37624848 -0.24316359 202.216654 -0.25146413 C209.39212524 -0.19054581 216.50139395 0.90955752 222.12739563 5.57794189 C222.80802063 6.42356689 223.48864563 7.26919189 224.18989563 8.14044189 C224.76739563 8.84169189 225.34489563 9.54294189 225.93989563 10.26544189 C228.74044164 14.46626091 228.335411 18.81513437 228.33033752 23.661026 C228.33479421 24.98159179 228.33479421 24.98159179 228.33934093 26.32883567 C228.34804001 29.29054271 228.34953719 32.2522094 228.35102844 35.21392822 C228.35565575 37.33268826 228.36068029 39.45144746 228.36607361 41.57020569 C228.37920772 47.33470956 228.38564449 53.09920177 228.39008427 58.86371827 C228.39301325 62.46339911 228.39711771 66.06307674 228.40158844 69.66275597 C228.41526578 80.92026404 228.42493139 92.17776481 228.42879033 103.43528062 C228.43327239 116.43990296 228.4508262 129.44442027 228.47979093 142.44901067 C228.50139094 152.49494385 228.51149371 162.54084745 228.51283145 172.58680362 C228.51388064 178.58972278 228.51981284 184.59254324 228.53765106 190.595438 C228.55410274 196.24166599 228.55630132 201.88772077 228.54751205 207.53396416 C228.54674014 209.60681242 228.55110471 211.67966988 228.56097031 213.75249481 C228.57364577 216.58150619 228.56783686 219.40990002 228.55738831 222.23890686 C228.56947291 223.470289 228.56947291 223.470289 228.58180165 224.72654754 C228.52785167 230.9690901 227.02267204 235.0104585 222.87739563 239.82794189 C215.93703363 245.79988129 209.20267013 246.29012966 200.37979126 246.28088379 C199.04864494 246.28534047 199.04864494 246.28534047 197.69060677 246.28988719 C194.71680873 246.29855908 191.74305102 246.30008117 188.76924133 246.30157471 C186.63697219 246.30620397 184.50470388 246.31122877 182.37243652 246.31661987 C176.57885782 246.32973592 170.78529069 246.33618735 164.99169946 246.34063053 C161.37087044 246.34356269 157.75004458 246.34766778 154.12921715 246.3521347 C142.79695663 246.36580787 131.46470334 246.37547528 120.13243514 246.3793366 C107.0576925 246.38381628 93.98305445 246.40136088 80.90834361 246.43033719 C70.79776461 246.45196535 60.68721501 246.46204149 50.57661313 246.46337771 C44.54006153 246.46442497 38.50360828 246.47031603 32.46708107 246.48819733 C26.78634191 246.50469739 21.10577483 246.50682402 15.42502022 246.49805832 C13.3441751 246.49728897 11.26332065 246.5016171 9.18249893 246.51151657 C6.3331022 246.52427362 3.4843115 246.51833883 0.63491821 246.50793457 C-0.1807695 246.51599097 -0.99645722 246.52404738 -1.83686274 246.53234792 C-9.01233398 246.4714296 -16.12160269 245.37132627 -21.74760437 240.70294189 C-22.42822937 239.85731689 -23.10885437 239.01169189 -23.81010437 238.14044189 C-24.38760437 237.43919189 -24.96510437 236.73794189 -25.56010437 236.01544189 C-28.36065038 231.81462288 -27.95561974 227.46574942 -27.95054626 222.61985779 C-27.95351739 221.7394806 -27.95648851 220.85910341 -27.95954967 219.95204812 C-27.96824875 216.99034108 -27.96974593 214.02867439 -27.97123718 211.06695557 C-27.97586449 208.94819553 -27.98088903 206.82943633 -27.98628235 204.7106781 C-27.99941646 198.94617423 -28.00585323 193.18168202 -28.01029301 187.41716552 C-28.01322199 183.81748468 -28.01732645 180.21780705 -28.02179718 176.61812782 C-28.03547452 165.36061975 -28.04514013 154.10311897 -28.04899907 142.84560317 C-28.05348113 129.84098082 -28.07103494 116.83646352 -28.09999967 103.83187312 C-28.12159969 93.78593993 -28.13170245 83.74003634 -28.13304019 73.69408017 C-28.13408938 67.69116101 -28.14002158 61.68834055 -28.1578598 55.68544579 C-28.17431148 50.03921779 -28.17651006 44.39316302 -28.16772079 38.74691963 C-28.16694888 36.67407137 -28.17131345 34.60121391 -28.18117905 32.52838898 C-28.19385451 29.6993776 -28.1880456 26.87098377 -28.17759705 24.04197693 C-28.18565345 23.2210555 -28.19370986 22.40013408 -28.20201039 21.55433625 C-28.14806041 15.31179369 -26.64288078 11.27042529 -22.49760437 6.45294189 C-15.55724237 0.4810025 -8.82287887 -0.00924587 0 0 Z " fill="#9C060C" transform="translate(27.810104370117188,4.85955810546875)"/>
<path d="M0 0 C5.48571644 4.60185319 9.13144236 10.78847923 10.23046875 17.87109375 C10.54924008 26.12089564 8.56362025 32.51362087 3.23046875 38.87109375 C-3.0812644 44.40388343 -9.63815804 47.16716224 -18.08203125 46.87109375 C-25.20130363 46.01052236 -30.90687761 43.13677109 -35.65625 37.71875 C-40.60225248 30.71291114 -42.45839805 24.25740092 -41.42578125 15.71484375 C-39.813262 8.72726035 -36.16543998 3.4893806 -30.33203125 -0.62890625 C-20.10413932 -6.63630367 -9.93899001 -6.58912374 0 0 Z " fill="#F8ECD3" transform="translate(143.76953125,107.12890625)"/>
</svg>
